<svg xmlns="http://www.w3.org/2000/svg" width="40" height="40" viewBox="0 0 24 24" fill="#3178C6">
  <rect x="2" y="2" width="20" height="20" rx="4" fill="#3178C6"/>
  <path d="M11.5 13.5H9.5V18H7.5V13.5H5.5V11.8H11.5V13.5ZM17.8 13.3C17.4 12.8 16.7 12.5 15.8 12.5C15.2 12.5 14.7 12.6 14.4 12.9C14.1 13.2 13.9 13.5 13.9 14C13.9 14.5 14.1 14.8 14.5 15.1C14.9 15.4 15.6 15.7 16.4 16C17.4 16.4 18.1 16.8 18.5 17.3C18.9 17.8 19.1 18.4 19.1 19.1C19.1 20.1 18.7 20.8 18 21.4C17.3 22 16.2 22.3 14.8 22.3C13.8 22.3 12.9 22.1 12.1 21.6C11.3 21.1 10.8 20.4 10.5 19.5L12.3 18.8C12.5 19.3 12.8 19.7 13.3 20.1C13.8 20.4 14.3 20.6 15 20.6C15.7 20.6 16.2 20.4 16.6 20.1C17 19.8 17.2 19.4 17.2 18.9C17.2 18.4 17 18 16.6 17.7C16.2 17.4 15.5 17.1 14.6 16.8C13.6 16.4 12.9 16 12.4 15.4C11.9 14.8 11.7 14.1 11.7 13.3C11.7 12.3 12.1 11.5 12.8 10.9C13.5 10.3 14.5 10 15.7 10C16.6 10 17.4 10.2 18.1 10.6C18.8 11 19.3 11.6 19.5 12.4L17.8 13.3Z" fill="white"/>
</svg>
